<svg id="visual" viewBox="0 0 900 600" width="900" height="600" xmlns="http://www.w3.org/2000/svg" xmlns:xlink="http://www.w3.org/1999/xlink" version="1.1"><rect x="0" y="0" width="900" height="600" fill="#140021"></rect><path d="M0 179L75 179L75 228L150 228L150 188L225 188L225 311L300 311L300 303L375 303L375 202L450 202L450 228L525 228L525 279L600 279L600 224L675 224L675 279L750 279L750 297L825 297L825 335L900 335L900 251L900 601L900 601L825 601L825 601L750 601L750 601L675 601L675 601L600 601L600 601L525 601L525 601L450 601L450 601L375 601L375 601L300 601L300 601L225 601L225 601L150 601L150 601L75 601L75 601L0 601Z" fill="#9900ff"></path><path d="M0 286L75 286L75 306L150 306L150 307L225 307L225 397L300 397L300 308L375 308L375 371L450 371L450 380L525 380L525 299L600 299L600 402L675 402L675 285L750 285L750 414L825 414L825 315L900 315L900 308L900 601L900 601L825 601L825 601L750 601L750 601L675 601L675 601L600 601L600 601L525 601L525 601L450 601L450 601L375 601L375 601L300 601L300 601L225 601L225 601L150 601L150 601L75 601L75 601L0 601Z" fill="#8200d9"></path><path d="M0 478L75 478L75 438L150 438L150 375L225 375L225 426L300 426L300 385L375 385L375 441L450 441L450 390L525 390L525 465L600 465L600 449L675 449L675 477L750 477L750 405L825 405L825 358L900 358L900 406L900 601L900 601L825 601L825 601L750 601L750 601L675 601L675 601L600 601L600 601L525 601L525 601L450 601L450 601L375 601L375 601L300 601L300 601L225 601L225 601L150 601L150 601L75 601L75 601L0 601Z" fill="#6c00b4"></path><path d="M0 508L75 508L75 508L150 508L150 508L225 508L225 546L300 546L300 453L375 453L375 482L450 482L450 561L525 561L525 509L600 509L600 552L675 552L675 453L750 453L750 458L825 458L825 490L900 490L900 532L900 601L900 601L825 601L825 601L750 601L750 601L675 601L675 601L600 601L600 601L525 601L525 601L450 601L450 601L375 601L375 601L300 601L300 601L225 601L225 601L150 601L150 601L75 601L75 601L0 601Z" fill="#560090"></path></svg>