<svg id="visual" viewBox="0 0 900 600" width="900" height="600" xmlns="http://www.w3.org/2000/svg" xmlns:xlink="http://www.w3.org/1999/xlink" version="1.1"><rect width="900" height="600" fill="#001829"></rect><g><g transform="translate(230 553)"><path d="M0 -62.8L54.4 -31.4L54.4 31.4L0 62.8L-54.4 31.4L-54.4 -31.4Z" fill="#297EA6"></path></g><g transform="translate(310 212)"><path d="M0 -53L45.9 -26.5L45.9 26.5L0 53L-45.9 26.5L-45.9 -26.5Z" fill="#297EA6"></path></g><g transform="translate(685 148)"><path d="M0 -48L41.6 -24L41.6 24L0 48L-41.6 24L-41.6 -24Z" fill="#297EA6"></path></g><g transform="translate(871 411)"><path d="M0 -60L52 -30L52 30L0 60L-52 30L-52 -30Z" fill="#297EA6"></path></g><g transform="translate(59 371)"><path d="M0 -50L43.3 -25L43.3 25L0 50L-43.3 25L-43.3 -25Z" fill="#297EA6"></path></g><g transform="translate(151 5)"><path d="M0 -51L44.2 -25.5L44.2 25.5L0 51L-44.2 25.5L-44.2 -25.5Z" fill="#297EA6"></path></g><g transform="translate(107 217)"><path d="M0 -53L45.9 -26.5L45.9 26.5L0 53L-45.9 26.5L-45.9 -26.5Z" fill="#297EA6"></path></g><g transform="translate(477 433)"><path d="M0 -58L50.2 -29L50.2 29L0 58L-50.2 29L-50.2 -29Z" fill="#297EA6"></path></g><g transform="translate(20 522)"><path d="M0 -54L46.8 -27L46.8 27L0 54L-46.8 27L-46.8 -27Z" fill="#297EA6"></path></g><g transform="translate(644 376)"><path d="M0 -61L52.8 -30.5L52.8 30.5L0 61L-52.8 30.5L-52.8 -30.5Z" fill="#297EA6"></path></g><g transform="translate(750 559)"><path d="M0 -60L52 -30L52 30L0 60L-52 30L-52 -30Z" fill="#297EA6"></path></g><g transform="translate(235 418)"><path d="M0 -51L44.2 -25.5L44.2 25.5L0 51L-44.2 25.5L-44.2 -25.5Z" fill="#297EA6"></path></g><g transform="translate(813 271)"><path d="M0 -48L41.6 -24L41.6 24L0 48L-41.6 24L-41.6 -24Z" fill="#297EA6"></path></g><g transform="translate(489 141)"><path d="M0 -57L49.4 -28.5L49.4 28.5L0 57L-49.4 28.5L-49.4 -28.5Z" fill="#297EA6"></path></g><g transform="translate(558 571)"><path d="M0 -58L50.2 -29L50.2 29L0 58L-50.2 29L-50.2 -29Z" fill="#297EA6"></path></g><g transform="translate(867 40)"><path d="M0 -48L41.6 -24L41.6 24L0 48L-41.6 24L-41.6 -24Z" fill="#297EA6"></path></g><g transform="translate(273 37)"><path d="M0 -56L48.5 -28L48.5 28L0 56L-48.5 28L-48.5 -28Z" fill="#297EA6"></path></g><g transform="translate(441 272)"><path d="M0 -58L50.2 -29L50.2 29L0 58L-50.2 29L-50.2 -29Z" fill="#297EA6"></path></g><g transform="translate(11 92)"><path d="M0 -48L41.6 -24L41.6 24L0 48L-41.6 24L-41.6 -24Z" fill="#297EA6"></path></g><g transform="translate(411 578)"><path d="M0 -48L41.6 -24L41.6 24L0 48L-41.6 24L-41.6 -24Z" fill="#297EA6"></path></g><g transform="translate(591 250)"><path d="M0 -47L40.7 -23.5L40.7 23.5L0 47L-40.7 23.5L-40.7 -23.5Z" fill="#297EA6"></path></g></g></svg>