<svg id="visual" viewBox="0 0 900 600" width="900" height="600" xmlns="http://www.w3.org/2000/svg" xmlns:xlink="http://www.w3.org/1999/xlink" version="1.1"><rect x="0" y="0" width="900" height="600" fill="#001829"></rect><g fill="#297EA6"><path d="M0 -73.6L16.5 -22.7L70 -22.7L26.7 8.7L43.3 59.6L0 28.1L-43.3 59.6L-26.7 8.7L-70 -22.7L-16.5 -22.7Z" transform="translate(724 98)"></path><path d="M0 -32.1L7.2 -9.9L30.5 -9.9L11.7 3.8L18.9 26L0 12.3L-18.9 26L-11.7 3.8L-30.5 -9.9L-7.2 -9.9Z" transform="translate(445 28)"></path><path d="M0 -65.1L14.6 -20.1L61.9 -20.1L23.7 7.7L38.3 52.7L0 24.9L-38.3 52.7L-23.7 7.7L-61.9 -20.1L-14.6 -20.1Z" transform="translate(565 495)"></path><path d="M0 -67L15 -20.7L63.7 -20.7L24.3 7.9L39.4 54.2L0 25.6L-39.4 54.2L-24.3 7.9L-63.7 -20.7L-15 -20.7Z" transform="translate(407 489)"></path><path d="M0 -51L11.4 -15.7L48.5 -15.7L18.5 6L30 41.2L0 19.5L-30 41.2L-18.5 6L-48.5 -15.7L-11.4 -15.7Z" transform="translate(465 330)"></path><path d="M0 -58.5L13.1 -18.1L55.7 -18.1L21.3 6.9L34.4 47.3L0 22.4L-34.4 47.3L-21.3 6.9L-55.7 -18.1L-13.1 -18.1Z" transform="translate(71 576)"></path><path d="M0 -37.8L8.5 -11.7L35.9 -11.7L13.7 4.5L22.2 30.5L0 14.4L-22.2 30.5L-13.7 4.5L-35.9 -11.7L-8.5 -11.7Z" transform="translate(572 172)"></path><path d="M0 -60.4L13.6 -18.7L57.4 -18.7L21.9 7.1L35.5 48.9L0 23.1L-35.5 48.9L-21.9 7.1L-57.4 -18.7L-13.6 -18.7Z" transform="translate(152 66)"></path><path d="M0 -36.8L8.3 -11.4L35 -11.4L13.4 4.3L21.6 29.8L0 14.1L-21.6 29.8L-13.4 4.3L-35 -11.4L-8.3 -11.4Z" transform="translate(356 194)"></path><path d="M0 -47.2L10.6 -14.6L44.9 -14.6L17.1 5.6L27.7 38.2L0 18L-27.7 38.2L-17.1 5.6L-44.9 -14.6L-10.6 -14.6Z" transform="translate(841 284)"></path><path d="M0 -45.3L10.2 -14L43.1 -14L16.5 5.3L26.6 36.7L0 17.3L-26.6 36.7L-16.5 5.3L-43.1 -14L-10.2 -14Z" transform="translate(203 440)"></path><path d="M0 -61.3L13.8 -19L58.3 -19L22.3 7.2L36.1 49.6L0 23.4L-36.1 49.6L-22.3 7.2L-58.3 -19L-13.8 -19Z" transform="translate(814 565)"></path><path d="M0 -52.9L11.9 -16.3L50.3 -16.3L19.2 6.2L31.1 42.8L0 20.2L-31.1 42.8L-19.2 6.2L-50.3 -16.3L-11.9 -16.3Z" transform="translate(67 309)"></path><path d="M0 -66.1L14.8 -20.4L62.8 -20.4L24 7.8L38.8 53.5L0 25.2L-38.8 53.5L-24 7.8L-62.8 -20.4L-14.8 -20.4Z" transform="translate(191 216)"></path><path d="M0 -46.2L10.4 -14.3L44 -14.3L16.8 5.5L27.2 37.4L0 17.7L-27.2 37.4L-16.8 5.5L-44 -14.3L-10.4 -14.3Z" transform="translate(235 592)"></path><path d="M0 -44.4L10 -13.7L42.2 -13.7L16.1 5.2L26.1 35.9L0 16.9L-26.1 35.9L-16.1 5.2L-42.2 -13.7L-10 -13.7Z" transform="translate(867 22)"></path><path d="M0 -64.2L14.4 -19.8L61 -19.8L23.3 7.6L37.7 51.9L0 24.5L-37.7 51.9L-23.3 7.6L-61 -19.8L-14.4 -19.8Z" transform="translate(714 417)"></path></g></svg>